<svg id="visual" viewBox="0 0 960 540" width="960" height="540" xmlns="http://www.w3.org/2000/svg" xmlns:xlink="http://www.w3.org/1999/xlink" version="1.1"><rect x="0" y="0" width="960" height="540" fill="#000000"></rect><path d="M0 418L17.8 418.3C35.7 418.7 71.3 419.3 106.8 424C142.3 428.7 177.7 437.3 213.2 437C248.7 436.7 284.3 427.3 320 421.3C355.7 415.3 391.3 412.7 426.8 411.7C462.3 410.7 497.7 411.3 533.2 418.3C568.7 425.3 604.3 438.7 640 444C675.7 449.3 711.3 446.7 746.8 442C782.3 437.3 817.7 430.7 853.2 424.2C888.7 417.7 924.3 411.3 942.2 408.2L960 405L960 541L942.2 541C924.3 541 888.7 541 853.2 541C817.7 541 782.3 541 746.8 541C711.3 541 675.7 541 640 541C604.3 541 568.7 541 533.2 541C497.7 541 462.3 541 426.8 541C391.3 541 355.7 541 320 541C284.3 541 248.7 541 213.2 541C177.7 541 142.3 541 106.8 541C71.3 541 35.7 541 17.8 541L0 541Z" fill="#b1ede8"></path><path d="M0 471L17.8 470C35.7 469 71.3 467 106.8 463.8C142.3 460.7 177.7 456.3 213.2 453.5C248.7 450.7 284.3 449.3 320 452.5C355.7 455.7 391.3 463.3 426.8 462.3C462.3 461.3 497.7 451.7 533.2 444.5C568.7 437.3 604.3 432.7 640 430.8C675.7 429 711.3 430 746.8 434C782.3 438 817.7 445 853.2 445.2C888.7 445.3 924.3 438.7 942.2 435.3L960 432L960 541L942.2 541C924.3 541 888.7 541 853.2 541C817.7 541 782.3 541 746.8 541C711.3 541 675.7 541 640 541C604.3 541 568.7 541 533.2 541C497.7 541 462.3 541 426.8 541C391.3 541 355.7 541 320 541C284.3 541 248.7 541 213.2 541C177.7 541 142.3 541 106.8 541C71.3 541 35.7 541 17.8 541L0 541Z" fill="#74afaa"></path><path d="M0 491L17.8 491C35.7 491 71.3 491 106.8 488.8C142.3 486.7 177.7 482.3 213.2 480C248.7 477.7 284.3 477.3 320 476.7C355.7 476 391.3 475 426.8 471.3C462.3 467.7 497.7 461.3 533.2 460.3C568.7 459.3 604.3 463.7 640 466.7C675.7 469.7 711.3 471.3 746.8 470.8C782.3 470.3 817.7 467.7 853.2 468.8C888.7 470 924.3 475 942.2 477.5L960 480L960 541L942.2 541C924.3 541 888.7 541 853.2 541C817.7 541 782.3 541 746.8 541C711.3 541 675.7 541 640 541C604.3 541 568.7 541 533.2 541C497.7 541 462.3 541 426.8 541C391.3 541 355.7 541 320 541C284.3 541 248.7 541 213.2 541C177.7 541 142.3 541 106.8 541C71.3 541 35.7 541 17.8 541L0 541Z" fill="#3a7470"></path><path d="M0 505L17.8 500C35.7 495 71.3 485 106.8 484.7C142.3 484.3 177.7 493.7 213.2 497.8C248.7 502 284.3 501 320 498.3C355.7 495.7 391.3 491.3 426.8 489.2C462.3 487 497.7 487 533.2 486.8C568.7 486.7 604.3 486.3 640 489.3C675.7 492.3 711.3 498.7 746.8 498.5C782.3 498.3 817.7 491.7 853.2 490.8C888.7 490 924.3 495 942.2 497.5L960 500L960 541L942.2 541C924.3 541 888.7 541 853.2 541C817.7 541 782.3 541 746.8 541C711.3 541 675.7 541 640 541C604.3 541 568.7 541 533.2 541C497.7 541 462.3 541 426.8 541C391.3 541 355.7 541 320 541C284.3 541 248.7 541 213.2 541C177.7 541 142.3 541 106.8 541C71.3 541 35.7 541 17.8 541L0 541Z" fill="#003e3b"></path><path d="M0 501L17.8 504.2C35.7 507.3 71.3 513.7 106.8 517C142.3 520.3 177.7 520.7 213.2 520.3C248.7 520 284.3 519 320 519.3C355.7 519.7 391.3 521.3 426.8 518.5C462.3 515.7 497.7 508.3 533.2 508.3C568.7 508.3 604.3 515.7 640 517.5C675.7 519.3 711.3 515.7 746.8 512.8C782.3 510 817.7 508 853.2 509.3C888.7 510.7 924.3 515.3 942.2 517.7L960 520L960 541L942.2 541C924.3 541 888.7 541 853.2 541C817.7 541 782.3 541 746.8 541C711.3 541 675.7 541 640 541C604.3 541 568.7 541 533.2 541C497.7 541 462.3 541 426.8 541C391.3 541 355.7 541 320 541C284.3 541 248.7 541 213.2 541C177.7 541 142.3 541 106.8 541C71.3 541 35.7 541 17.8 541L0 541Z" fill="#000000"></path></svg>