<svg id="visual" viewBox="0 0 960 540" width="960" height="540" xmlns="http://www.w3.org/2000/svg" xmlns:xlink="http://www.w3.org/1999/xlink" version="1.1"><rect x="0" y="0" width="960" height="540" fill="#000000"></rect><path d="M0 427L17.8 429.2C35.7 431.3 71.3 435.7 106.8 437.5C142.3 439.3 177.7 438.7 213.2 434.2C248.7 429.7 284.3 421.3 320 424.2C355.7 427 391.3 441 426.8 447.2C462.3 453.3 497.7 451.7 533.2 446.5C568.7 441.3 604.3 432.7 640 429.5C675.7 426.3 711.3 428.7 746.8 425.5C782.3 422.3 817.7 413.7 853.2 412.3C888.7 411 924.3 417 942.2 420L960 423L960 541L942.2 541C924.3 541 888.7 541 853.2 541C817.7 541 782.3 541 746.8 541C711.3 541 675.7 541 640 541C604.3 541 568.7 541 533.2 541C497.7 541 462.3 541 426.8 541C391.3 541 355.7 541 320 541C284.3 541 248.7 541 213.2 541C177.7 541 142.3 541 106.8 541C71.3 541 35.7 541 17.8 541L0 541Z" fill="#b1ede8"></path><path d="M0 467L17.8 461C35.7 455 71.3 443 106.8 439.7C142.3 436.3 177.7 441.7 213.2 447.8C248.7 454 284.3 461 320 460C355.7 459 391.3 450 426.8 444.5C462.3 439 497.7 437 533.2 438.3C568.7 439.7 604.3 444.3 640 450.7C675.7 457 711.3 465 746.8 467.5C782.3 470 817.7 467 853.2 462.3C888.7 457.7 924.3 451.3 942.2 448.2L960 445L960 541L942.2 541C924.3 541 888.7 541 853.2 541C817.7 541 782.3 541 746.8 541C711.3 541 675.7 541 640 541C604.3 541 568.7 541 533.2 541C497.7 541 462.3 541 426.8 541C391.3 541 355.7 541 320 541C284.3 541 248.7 541 213.2 541C177.7 541 142.3 541 106.8 541C71.3 541 35.7 541 17.8 541L0 541Z" fill="#1c5855"></path><path d="M0 458L17.8 457.3C35.7 456.7 71.3 455.3 106.8 456.8C142.3 458.3 177.7 462.7 213.2 466.5C248.7 470.3 284.3 473.7 320 477.5C355.7 481.3 391.3 485.7 426.8 483C462.3 480.3 497.7 470.7 533.2 464.7C568.7 458.7 604.3 456.3 640 460.7C675.7 465 711.3 476 746.8 477.8C782.3 479.7 817.7 472.3 853.2 469.2C888.7 466 924.3 467 942.2 467.5L960 468L960 541L942.2 541C924.3 541 888.7 541 853.2 541C817.7 541 782.3 541 746.8 541C711.3 541 675.7 541 640 541C604.3 541 568.7 541 533.2 541C497.7 541 462.3 541 426.8 541C391.3 541 355.7 541 320 541C284.3 541 248.7 541 213.2 541C177.7 541 142.3 541 106.8 541C71.3 541 35.7 541 17.8 541L0 541Z" fill="#000000"></path><path d="M0 504L17.8 504.7C35.7 505.3 71.3 506.7 106.8 504C142.3 501.3 177.7 494.7 213.2 491C248.7 487.3 284.3 486.7 320 486.5C355.7 486.3 391.3 486.7 426.8 489.8C462.3 493 497.7 499 533.2 502.3C568.7 505.7 604.3 506.3 640 504.8C675.7 503.3 711.3 499.7 746.8 499.8C782.3 500 817.7 504 853.2 503.7C888.7 503.3 924.3 498.7 942.2 496.3L960 494L960 541L942.2 541C924.3 541 888.7 541 853.2 541C817.7 541 782.3 541 746.8 541C711.3 541 675.7 541 640 541C604.3 541 568.7 541 533.2 541C497.7 541 462.3 541 426.8 541C391.3 541 355.7 541 320 541C284.3 541 248.7 541 213.2 541C177.7 541 142.3 541 106.8 541C71.3 541 35.7 541 17.8 541L0 541Z" fill="#1c5855"></path><path d="M0 503L17.8 504.8C35.7 506.7 71.3 510.3 106.8 512.2C142.3 514 177.7 514 213.2 511.7C248.7 509.3 284.3 504.7 320 503.3C355.7 502 391.3 504 426.8 506.3C462.3 508.7 497.7 511.3 533.2 511C568.7 510.7 604.3 507.3 640 507.5C675.7 507.7 711.3 511.3 746.8 513.5C782.3 515.7 817.7 516.3 853.2 514.8C888.7 513.3 924.3 509.7 942.2 507.8L960 506L960 541L942.2 541C924.3 541 888.7 541 853.2 541C817.7 541 782.3 541 746.8 541C711.3 541 675.7 541 640 541C604.3 541 568.7 541 533.2 541C497.7 541 462.3 541 426.8 541C391.3 541 355.7 541 320 541C284.3 541 248.7 541 213.2 541C177.7 541 142.3 541 106.8 541C71.3 541 35.7 541 17.8 541L0 541Z" fill="#b1ede8"></path></svg>