<svg id="visual" viewBox="0 0 960 540" width="960" height="540" xmlns="http://www.w3.org/2000/svg" xmlns:xlink="http://www.w3.org/1999/xlink" version="1.1"><rect x="0" y="0" width="960" height="540" fill="#000000"></rect><path d="M0 338L22.8 336.7C45.7 335.3 91.3 332.7 137 338C182.7 343.3 228.3 356.7 274 356.8C319.7 357 365.3 344 411.2 335.7C457 327.3 503 323.7 548.8 327.7C594.7 331.7 640.3 343.3 686 352.5C731.7 361.7 777.3 368.3 823 373.2C868.7 378 914.3 381 937.2 382.5L960 384L960 541L937.2 541C914.3 541 868.7 541 823 541C777.3 541 731.7 541 686 541C640.3 541 594.7 541 548.8 541C503 541 457 541 411.2 541C365.3 541 319.7 541 274 541C228.3 541 182.7 541 137 541C91.3 541 45.7 541 22.8 541L0 541Z" fill="#b1ede8"></path><path d="M0 351L22.8 360C45.7 369 91.3 387 137 395.3C182.7 403.7 228.3 402.3 274 403.5C319.7 404.7 365.3 408.3 411.2 408.2C457 408 503 404 548.8 401C594.7 398 640.3 396 686 391.7C731.7 387.3 777.3 380.7 823 382.8C868.7 385 914.3 396 937.2 401.5L960 407L960 541L937.2 541C914.3 541 868.7 541 823 541C777.3 541 731.7 541 686 541C640.3 541 594.7 541 548.8 541C503 541 457 541 411.2 541C365.3 541 319.7 541 274 541C228.3 541 182.7 541 137 541C91.3 541 45.7 541 22.8 541L0 541Z" fill="#a8d9c4"></path><path d="M0 394L22.8 401.3C45.7 408.7 91.3 423.3 137 422.3C182.7 421.3 228.3 404.7 274 395.3C319.7 386 365.3 384 411.2 387.8C457 391.7 503 401.3 548.8 409.7C594.7 418 640.3 425 686 424.3C731.7 423.7 777.3 415.3 823 416.5C868.7 417.7 914.3 428.3 937.2 433.7L960 439L960 541L937.2 541C914.3 541 868.7 541 823 541C777.3 541 731.7 541 686 541C640.3 541 594.7 541 548.8 541C503 541 457 541 411.2 541C365.3 541 319.7 541 274 541C228.3 541 182.7 541 137 541C91.3 541 45.7 541 22.8 541L0 541Z" fill="#a6c4a2"></path><path d="M0 460L22.8 454.8C45.7 449.7 91.3 439.3 137 440.3C182.7 441.3 228.3 453.7 274 454.8C319.7 456 365.3 446 411.2 445.3C457 444.7 503 453.3 548.8 453.5C594.7 453.7 640.3 445.3 686 438.7C731.7 432 777.3 427 823 430.5C868.7 434 914.3 446 937.2 452L960 458L960 541L937.2 541C914.3 541 868.7 541 823 541C777.3 541 731.7 541 686 541C640.3 541 594.7 541 548.8 541C503 541 457 541 411.2 541C365.3 541 319.7 541 274 541C228.3 541 182.7 541 137 541C91.3 541 45.7 541 22.8 541L0 541Z" fill="#a7ae84"></path><path d="M0 488L22.8 488.8C45.7 489.7 91.3 491.3 137 488.7C182.7 486 228.3 479 274 473.3C319.7 467.7 365.3 463.3 411.2 466.7C457 470 503 481 548.8 485.5C594.7 490 640.3 488 686 483.8C731.7 479.7 777.3 473.3 823 474.2C868.7 475 914.3 483 937.2 487L960 491L960 541L937.2 541C914.3 541 868.7 541 823 541C777.3 541 731.7 541 686 541C640.3 541 594.7 541 548.8 541C503 541 457 541 411.2 541C365.3 541 319.7 541 274 541C228.3 541 182.7 541 137 541C91.3 541 45.7 541 22.8 541L0 541Z" fill="#a7976e"></path><path d="M0 519L22.8 514.3C45.7 509.7 91.3 500.3 137 497.2C182.7 494 228.3 497 274 498.7C319.7 500.3 365.3 500.7 411.2 503C457 505.3 503 509.7 548.8 511C594.7 512.3 640.3 510.7 686 506.8C731.7 503 777.3 497 823 498.3C868.7 499.7 914.3 508.3 937.2 512.7L960 517L960 541L937.2 541C914.3 541 868.7 541 823 541C777.3 541 731.7 541 686 541C640.3 541 594.7 541 548.8 541C503 541 457 541 411.2 541C365.3 541 319.7 541 274 541C228.3 541 182.7 541 137 541C91.3 541 45.7 541 22.8 541L0 541Z" fill="#a57f60"></path></svg>