<svg id="visual" viewBox="0 0 960 540" width="960" height="540" xmlns="http://www.w3.org/2000/svg" xmlns:xlink="http://www.w3.org/1999/xlink" version="1.1"><rect x="0" y="0" width="960" height="540" fill="#000000"></rect><path d="M0 396L22.8 385C45.7 374 91.3 352 137 339.5C182.7 327 228.3 324 274 328.8C319.7 333.7 365.3 346.3 411.2 345.7C457 345 503 331 548.8 329.8C594.7 328.7 640.3 340.3 686 345.3C731.7 350.3 777.3 348.7 823 351.7C868.7 354.7 914.3 362.3 937.2 366.2L960 370L960 541L937.2 541C914.3 541 868.7 541 823 541C777.3 541 731.7 541 686 541C640.3 541 594.7 541 548.8 541C503 541 457 541 411.2 541C365.3 541 319.7 541 274 541C228.3 541 182.7 541 137 541C91.3 541 45.7 541 22.8 541L0 541Z" fill="#b1ede8"></path><path d="M0 379L22.8 375C45.7 371 91.3 363 137 359.5C182.7 356 228.3 357 274 361.8C319.7 366.7 365.3 375.3 411.2 375.3C457 375.3 503 366.7 548.8 371.7C594.7 376.7 640.3 395.3 686 397.5C731.7 399.7 777.3 385.3 823 383.5C868.7 381.7 914.3 392.3 937.2 397.7L960 403L960 541L937.2 541C914.3 541 868.7 541 823 541C777.3 541 731.7 541 686 541C640.3 541 594.7 541 548.8 541C503 541 457 541 411.2 541C365.3 541 319.7 541 274 541C228.3 541 182.7 541 137 541C91.3 541 45.7 541 22.8 541L0 541Z" fill="#a7d4bb"></path><path d="M0 434L22.8 430.2C45.7 426.3 91.3 418.7 137 411.8C182.7 405 228.3 399 274 398.8C319.7 398.7 365.3 404.3 411.2 408.7C457 413 503 416 548.8 421.3C594.7 426.7 640.3 434.3 686 440.3C731.7 446.3 777.3 450.7 823 448.2C868.7 445.7 914.3 436.3 937.2 431.7L960 427L960 541L937.2 541C914.3 541 868.7 541 823 541C777.3 541 731.7 541 686 541C640.3 541 594.7 541 548.8 541C503 541 457 541 411.2 541C365.3 541 319.7 541 274 541C228.3 541 182.7 541 137 541C91.3 541 45.7 541 22.8 541L0 541Z" fill="#a6b992"></path><path d="M0 476L22.8 476.8C45.7 477.7 91.3 479.3 137 480.5C182.7 481.7 228.3 482.3 274 479.5C319.7 476.7 365.3 470.3 411.2 469.8C457 469.3 503 474.7 548.8 475C594.7 475.3 640.3 470.7 686 463.3C731.7 456 777.3 446 823 445.2C868.7 444.3 914.3 452.7 937.2 456.8L960 461L960 541L937.2 541C914.3 541 868.7 541 823 541C777.3 541 731.7 541 686 541C640.3 541 594.7 541 548.8 541C503 541 457 541 411.2 541C365.3 541 319.7 541 274 541C228.3 541 182.7 541 137 541C91.3 541 45.7 541 22.8 541L0 541Z" fill="#a79c72"></path><path d="M0 474L22.8 478.5C45.7 483 91.3 492 137 498.2C182.7 504.3 228.3 507.7 274 509.3C319.7 511 365.3 511 411.2 511.2C457 511.3 503 511.7 548.8 506C594.7 500.3 640.3 488.7 686 486.8C731.7 485 777.3 493 823 494.8C868.7 496.7 914.3 492.3 937.2 490.2L960 488L960 541L937.2 541C914.3 541 868.7 541 823 541C777.3 541 731.7 541 686 541C640.3 541 594.7 541 548.8 541C503 541 457 541 411.2 541C365.3 541 319.7 541 274 541C228.3 541 182.7 541 137 541C91.3 541 45.7 541 22.8 541L0 541Z" fill="#a57f60"></path></svg>