<svg id="visual" viewBox="0 0 540 960" width="540" height="960" xmlns="http://www.w3.org/2000/svg" xmlns:xlink="http://www.w3.org/1999/xlink" version="1.1"><rect x="0" y="0" width="540" height="960" fill="#000000"></rect><path d="M0 699L12.8 706.3C25.7 713.7 51.3 728.3 77 732.2C102.7 736 128.3 729 154 730.5C179.7 732 205.3 742 231.2 732.8C257 723.7 283 695.3 308.8 689.5C334.7 683.7 360.3 700.3 386 704C411.7 707.7 437.3 698.3 463 687.7C488.7 677 514.3 665 527.2 659L540 653L540 961L527.2 961C514.3 961 488.7 961 463 961C437.3 961 411.7 961 386 961C360.3 961 334.7 961 308.8 961C283 961 257 961 231.2 961C205.3 961 179.7 961 154 961C128.3 961 102.7 961 77 961C51.3 961 25.7 961 12.8 961L0 961Z" fill="#b1ede8"></path><path d="M0 780L12.8 781.8C25.7 783.7 51.3 787.3 77 786.3C102.7 785.3 128.3 779.7 154 762C179.7 744.3 205.3 714.7 231.2 701.7C257 688.7 283 692.3 308.8 701.8C334.7 711.3 360.3 726.7 386 734.8C411.7 743 437.3 744 463 748.2C488.7 752.3 514.3 759.7 527.2 763.3L540 767L540 961L527.2 961C514.3 961 488.7 961 463 961C437.3 961 411.7 961 386 961C360.3 961 334.7 961 308.8 961C283 961 257 961 231.2 961C205.3 961 179.7 961 154 961C128.3 961 102.7 961 77 961C51.3 961 25.7 961 12.8 961L0 961Z" fill="#80bbb6"></path><path d="M0 755L12.8 766.2C25.7 777.3 51.3 799.7 77 806.7C102.7 813.7 128.3 805.3 154 803.5C179.7 801.7 205.3 806.3 231.2 795.7C257 785 283 759 308.8 755.7C334.7 752.3 360.3 771.7 386 776.7C411.7 781.7 437.3 772.3 463 767.2C488.7 762 514.3 761 527.2 760.5L540 760L540 961L527.2 961C514.3 961 488.7 961 463 961C437.3 961 411.7 961 386 961C360.3 961 334.7 961 308.8 961C283 961 257 961 231.2 961C205.3 961 179.7 961 154 961C128.3 961 102.7 961 77 961C51.3 961 25.7 961 12.8 961L0 961Z" fill="#518b87"></path><path d="M0 834L12.8 833.3C25.7 832.7 51.3 831.3 77 834.8C102.7 838.3 128.3 846.7 154 845.7C179.7 844.7 205.3 834.3 231.2 824.7C257 815 283 806 308.8 809.7C334.7 813.3 360.3 829.7 386 836.5C411.7 843.3 437.3 840.7 463 833.5C488.7 826.3 514.3 814.7 527.2 808.8L540 803L540 961L527.2 961C514.3 961 488.7 961 463 961C437.3 961 411.7 961 386 961C360.3 961 334.7 961 308.8 961C283 961 257 961 231.2 961C205.3 961 179.7 961 154 961C128.3 961 102.7 961 77 961C51.3 961 25.7 961 12.8 961L0 961Z" fill="#225e5a"></path><path d="M0 897L12.8 889.3C25.7 881.7 51.3 866.3 77 861.2C102.7 856 128.3 861 154 867C179.7 873 205.3 880 231.2 875.3C257 870.7 283 854.3 308.8 854.5C334.7 854.7 360.3 871.3 386 880.3C411.7 889.3 437.3 890.7 463 887.5C488.7 884.3 514.3 876.7 527.2 872.8L540 869L540 961L527.2 961C514.3 961 488.7 961 463 961C437.3 961 411.7 961 386 961C360.3 961 334.7 961 308.8 961C283 961 257 961 231.2 961C205.3 961 179.7 961 154 961C128.3 961 102.7 961 77 961C51.3 961 25.7 961 12.8 961L0 961Z" fill="#003331"></path><path d="M0 891L12.8 889.5C25.7 888 51.3 885 77 884.3C102.7 883.7 128.3 885.3 154 892.2C179.7 899 205.3 911 231.2 916.3C257 921.7 283 920.3 308.8 916.2C334.7 912 360.3 905 386 901C411.7 897 437.3 896 463 897.5C488.7 899 514.3 903 527.2 905L540 907L540 961L527.2 961C514.3 961 488.7 961 463 961C437.3 961 411.7 961 386 961C360.3 961 334.7 961 308.8 961C283 961 257 961 231.2 961C205.3 961 179.7 961 154 961C128.3 961 102.7 961 77 961C51.3 961 25.7 961 12.8 961L0 961Z" fill="#000000"></path></svg>