<svg id="visual" viewBox="0 0 960 540" width="960" height="540" xmlns="http://www.w3.org/2000/svg" xmlns:xlink="http://www.w3.org/1999/xlink" version="1.1"><rect x="0" y="0" width="960" height="540" fill="#000000"></rect><path d="M0 393L22.8 397C45.7 401 91.3 409 137 411.2C182.7 413.3 228.3 409.7 274 410.5C319.7 411.3 365.3 416.7 411.2 411.5C457 406.3 503 390.7 548.8 387.5C594.7 384.3 640.3 393.7 686 395.7C731.7 397.7 777.3 392.3 823 386.3C868.7 380.3 914.3 373.7 937.2 370.3L960 367L960 541L937.2 541C914.3 541 868.7 541 823 541C777.3 541 731.7 541 686 541C640.3 541 594.7 541 548.8 541C503 541 457 541 411.2 541C365.3 541 319.7 541 274 541C228.3 541 182.7 541 137 541C91.3 541 45.7 541 22.8 541L0 541Z" fill="#b1ede8"></path><path d="M0 438L22.8 439.2C45.7 440.3 91.3 442.7 137 442.2C182.7 441.7 228.3 438.3 274 428.3C319.7 418.3 365.3 401.7 411.2 394.3C457 387 503 389 548.8 394.3C594.7 399.7 640.3 408.3 686 413C731.7 417.7 777.3 418.3 823 420.7C868.7 423 914.3 427 937.2 429L960 431L960 541L937.2 541C914.3 541 868.7 541 823 541C777.3 541 731.7 541 686 541C640.3 541 594.7 541 548.8 541C503 541 457 541 411.2 541C365.3 541 319.7 541 274 541C228.3 541 182.7 541 137 541C91.3 541 45.7 541 22.8 541L0 541Z" fill="#80bbb6"></path><path d="M0 424L22.8 430.3C45.7 436.7 91.3 449.3 137 453.3C182.7 457.3 228.3 452.7 274 451.7C319.7 450.7 365.3 453.3 411.2 447.3C457 441.3 503 426.7 548.8 424.7C594.7 422.7 640.3 433.3 686 436.2C731.7 439 777.3 434 823 431.2C868.7 428.3 914.3 427.7 937.2 427.3L960 427L960 541L937.2 541C914.3 541 868.7 541 823 541C777.3 541 731.7 541 686 541C640.3 541 594.7 541 548.8 541C503 541 457 541 411.2 541C365.3 541 319.7 541 274 541C228.3 541 182.7 541 137 541C91.3 541 45.7 541 22.8 541L0 541Z" fill="#518b87"></path><path d="M0 469L22.8 468.7C45.7 468.3 91.3 467.7 137 469.7C182.7 471.7 228.3 476.3 274 475.7C319.7 475 365.3 469 411.2 463.5C457 458 503 453 548.8 455C594.7 457 640.3 466 686 469.8C731.7 473.7 777.3 472.3 823 468.3C868.7 464.3 914.3 457.7 937.2 454.3L960 451L960 541L937.2 541C914.3 541 868.7 541 823 541C777.3 541 731.7 541 686 541C640.3 541 594.7 541 548.8 541C503 541 457 541 411.2 541C365.3 541 319.7 541 274 541C228.3 541 182.7 541 137 541C91.3 541 45.7 541 22.8 541L0 541Z" fill="#225e5a"></path><path d="M0 504L22.8 499.7C45.7 495.3 91.3 486.7 137 483.8C182.7 481 228.3 484 274 487.5C319.7 491 365.3 495 411.2 492.3C457 489.7 503 480.3 548.8 480.3C594.7 480.3 640.3 489.7 686 494.8C731.7 500 777.3 501 823 499.2C868.7 497.3 914.3 492.7 937.2 490.3L960 488L960 541L937.2 541C914.3 541 868.7 541 823 541C777.3 541 731.7 541 686 541C640.3 541 594.7 541 548.8 541C503 541 457 541 411.2 541C365.3 541 319.7 541 274 541C228.3 541 182.7 541 137 541C91.3 541 45.7 541 22.8 541L0 541Z" fill="#003331"></path><path d="M0 501L22.8 500.2C45.7 499.3 91.3 497.7 137 497.3C182.7 497 228.3 498 274 501.8C319.7 505.7 365.3 512.3 411.2 515.3C457 518.3 503 517.7 548.8 515.3C594.7 513 640.3 509 686 506.7C731.7 504.3 777.3 503.7 823 504.5C868.7 505.3 914.3 507.7 937.2 508.8L960 510L960 541L937.2 541C914.3 541 868.7 541 823 541C777.3 541 731.7 541 686 541C640.3 541 594.7 541 548.8 541C503 541 457 541 411.2 541C365.3 541 319.7 541 274 541C228.3 541 182.7 541 137 541C91.3 541 45.7 541 22.8 541L0 541Z" fill="#000000"></path></svg>