<svg id="visual" viewBox="0 0 540 960" width="540" height="960" xmlns="http://www.w3.org/2000/svg" xmlns:xlink="http://www.w3.org/1999/xlink" version="1.1"><rect x="0" y="0" width="540" height="960" fill="#1D2935"></rect><path d="M0 698L11.3 692.7C22.7 687.3 45.3 676.7 67.8 670.5C90.3 664.3 112.7 662.7 135.2 674.2C157.7 685.7 180.3 710.3 202.8 723.2C225.3 736 247.7 737 270.2 725C292.7 713 315.3 688 337.8 691.7C360.3 695.3 382.7 727.7 405.2 729.5C427.7 731.3 450.3 702.7 472.8 700.3C495.3 698 517.7 722 528.8 734L540 746L540 961L528.8 961C517.7 961 495.3 961 472.8 961C450.3 961 427.7 961 405.2 961C382.7 961 360.3 961 337.8 961C315.3 961 292.7 961 270.2 961C247.7 961 225.3 961 202.8 961C180.3 961 157.7 961 135.2 961C112.7 961 90.3 961 67.8 961C45.3 961 22.7 961 11.3 961L0 961Z" fill="#114669"></path><path d="M0 745L11.3 743.7C22.7 742.3 45.3 739.7 67.8 746.3C90.3 753 112.7 769 135.2 768.7C157.7 768.3 180.3 751.7 202.8 743.2C225.3 734.7 247.7 734.3 270.2 735.3C292.7 736.3 315.3 738.7 337.8 750.5C360.3 762.3 382.7 783.7 405.2 792.8C427.7 802 450.3 799 472.8 790.2C495.3 781.3 517.7 766.7 528.8 759.3L540 752L540 961L528.8 961C517.7 961 495.3 961 472.8 961C450.3 961 427.7 961 405.2 961C382.7 961 360.3 961 337.8 961C315.3 961 292.7 961 270.2 961C247.7 961 225.3 961 202.8 961C180.3 961 157.7 961 135.2 961C112.7 961 90.3 961 67.8 961C45.3 961 22.7 961 11.3 961L0 961Z" fill="#183e5b"></path><path d="M0 761L11.3 772C22.7 783 45.3 805 67.8 814.3C90.3 823.7 112.7 820.3 135.2 811C157.7 801.7 180.3 786.3 202.8 790.2C225.3 794 247.7 817 270.2 822.5C292.7 828 315.3 816 337.8 812C360.3 808 382.7 812 405.2 818C427.7 824 450.3 832 472.8 823.8C495.3 815.7 517.7 791.3 528.8 779.2L540 767L540 961L528.8 961C517.7 961 495.3 961 472.8 961C450.3 961 427.7 961 405.2 961C382.7 961 360.3 961 337.8 961C315.3 961 292.7 961 270.2 961C247.7 961 225.3 961 202.8 961C180.3 961 157.7 961 135.2 961C112.7 961 90.3 961 67.8 961C45.3 961 22.7 961 11.3 961L0 961Z" fill="#1b374e"></path><path d="M0 860L11.3 863C22.7 866 45.3 872 67.8 876.3C90.3 880.7 112.7 883.3 135.2 875.3C157.7 867.3 180.3 848.7 202.8 838.7C225.3 828.7 247.7 827.3 270.2 825C292.7 822.7 315.3 819.3 337.8 826C360.3 832.7 382.7 849.3 405.2 858.8C427.7 868.3 450.3 870.7 472.8 864.3C495.3 858 517.7 843 528.8 835.5L540 828L540 961L528.8 961C517.7 961 495.3 961 472.8 961C450.3 961 427.7 961 405.2 961C382.7 961 360.3 961 337.8 961C315.3 961 292.7 961 270.2 961C247.7 961 225.3 961 202.8 961C180.3 961 157.7 961 135.2 961C112.7 961 90.3 961 67.8 961C45.3 961 22.7 961 11.3 961L0 961Z" fill="#1d3041"></path><path d="M0 913L11.3 912.5C22.7 912 45.3 911 67.8 909.2C90.3 907.3 112.7 904.7 135.2 907C157.7 909.3 180.3 916.7 202.8 911C225.3 905.3 247.7 886.7 270.2 881.2C292.7 875.7 315.3 883.3 337.8 889.7C360.3 896 382.7 901 405.2 897.2C427.7 893.3 450.3 880.7 472.8 878.2C495.3 875.7 517.7 883.3 528.8 887.2L540 891L540 961L528.8 961C517.7 961 495.3 961 472.8 961C450.3 961 427.7 961 405.2 961C382.7 961 360.3 961 337.8 961C315.3 961 292.7 961 270.2 961C247.7 961 225.3 961 202.8 961C180.3 961 157.7 961 135.2 961C112.7 961 90.3 961 67.8 961C45.3 961 22.7 961 11.3 961L0 961Z" fill="#1d2935"></path></svg>