<svg id="visual" viewBox="0 0 540 960" width="540" height="960" xmlns="http://www.w3.org/2000/svg" xmlns:xlink="http://www.w3.org/1999/xlink" version="1.1"><rect x="0" y="0" width="540" height="960" fill="#1D2935"></rect><path d="M0 591L11.3 602.5C22.7 614 45.3 637 67.8 632.8C90.3 628.7 112.7 597.3 135.2 581.8C157.7 566.3 180.3 566.7 202.8 579.5C225.3 592.3 247.7 617.7 270.2 630.8C292.7 644 315.3 645 337.8 652.3C360.3 659.7 382.7 673.3 405.2 670.5C427.7 667.7 450.3 648.3 472.8 637.2C495.3 626 517.7 623 528.8 621.5L540 620L540 961L528.8 961C517.7 961 495.3 961 472.8 961C450.3 961 427.7 961 405.2 961C382.7 961 360.3 961 337.8 961C315.3 961 292.7 961 270.2 961C247.7 961 225.3 961 202.8 961C180.3 961 157.7 961 135.2 961C112.7 961 90.3 961 67.8 961C45.3 961 22.7 961 11.3 961L0 961Z" fill="#1d2935"></path><path d="M0 752L11.3 753.3C22.7 754.7 45.3 757.3 67.8 743.7C90.3 730 112.7 700 135.2 683.7C157.7 667.3 180.3 664.7 202.8 673.7C225.3 682.7 247.7 703.3 270.2 711.3C292.7 719.3 315.3 714.7 337.8 714.3C360.3 714 382.7 718 405.2 722.8C427.7 727.7 450.3 733.3 472.8 733.5C495.3 733.7 517.7 728.3 528.8 725.7L540 723L540 961L528.8 961C517.7 961 495.3 961 472.8 961C450.3 961 427.7 961 405.2 961C382.7 961 360.3 961 337.8 961C315.3 961 292.7 961 270.2 961C247.7 961 225.3 961 202.8 961C180.3 961 157.7 961 135.2 961C112.7 961 90.3 961 67.8 961C45.3 961 22.7 961 11.3 961L0 961Z" fill="#1d3041"></path><path d="M0 705L11.3 718.8C22.7 732.7 45.3 760.3 67.8 768.7C90.3 777 112.7 766 135.2 766.8C157.7 767.7 180.3 780.3 202.8 775.3C225.3 770.3 247.7 747.7 270.2 740.7C292.7 733.7 315.3 742.3 337.8 751.7C360.3 761 382.7 771 405.2 780.7C427.7 790.3 450.3 799.7 472.8 804C495.3 808.3 517.7 807.7 528.8 807.3L540 807L540 961L528.8 961C517.7 961 495.3 961 472.8 961C450.3 961 427.7 961 405.2 961C382.7 961 360.3 961 337.8 961C315.3 961 292.7 961 270.2 961C247.7 961 225.3 961 202.8 961C180.3 961 157.7 961 135.2 961C112.7 961 90.3 961 67.8 961C45.3 961 22.7 961 11.3 961L0 961Z" fill="#1b374e"></path><path d="M0 802L11.3 797.8C22.7 793.7 45.3 785.3 67.8 796.3C90.3 807.3 112.7 837.7 135.2 844.5C157.7 851.3 180.3 834.7 202.8 831.5C225.3 828.3 247.7 838.7 270.2 842.3C292.7 846 315.3 843 337.8 844.2C360.3 845.3 382.7 850.7 405.2 848C427.7 845.3 450.3 834.7 472.8 832C495.3 829.3 517.7 834.7 528.8 837.3L540 840L540 961L528.8 961C517.7 961 495.3 961 472.8 961C450.3 961 427.7 961 405.2 961C382.7 961 360.3 961 337.8 961C315.3 961 292.7 961 270.2 961C247.7 961 225.3 961 202.8 961C180.3 961 157.7 961 135.2 961C112.7 961 90.3 961 67.8 961C45.3 961 22.7 961 11.3 961L0 961Z" fill="#183e5b"></path><path d="M0 911L11.3 907.5C22.7 904 45.3 897 67.8 889.2C90.3 881.3 112.7 872.7 135.2 864.3C157.7 856 180.3 848 202.8 856.8C225.3 865.7 247.7 891.3 270.2 899.3C292.7 907.3 315.3 897.7 337.8 896.8C360.3 896 382.7 904 405.2 900.2C427.7 896.3 450.3 880.7 472.8 872.5C495.3 864.3 517.7 863.7 528.8 863.3L540 863L540 961L528.8 961C517.7 961 495.3 961 472.8 961C450.3 961 427.7 961 405.2 961C382.7 961 360.3 961 337.8 961C315.3 961 292.7 961 270.2 961C247.7 961 225.3 961 202.8 961C180.3 961 157.7 961 135.2 961C112.7 961 90.3 961 67.8 961C45.3 961 22.7 961 11.3 961L0 961Z" fill="#114669"></path></svg>