<svg id="visual" viewBox="0 0 960 540" width="960" height="540" xmlns="http://www.w3.org/2000/svg" xmlns:xlink="http://www.w3.org/1999/xlink" version="1.1"><rect x="0" y="0" width="960" height="540" fill="#000000"></rect><path d="M0 356L22.8 361.2C45.7 366.3 91.3 376.7 137 379.3C182.7 382 228.3 377 274 378C319.7 379 365.3 386 411.2 379.7C457 373.3 503 353.7 548.8 349.7C594.7 345.7 640.3 357.3 686 359.8C731.7 362.3 777.3 355.7 823 348.2C868.7 340.7 914.3 332.3 937.2 328.2L960 324L960 541L937.2 541C914.3 541 868.7 541 823 541C777.3 541 731.7 541 686 541C640.3 541 594.7 541 548.8 541C503 541 457 541 411.2 541C365.3 541 319.7 541 274 541C228.3 541 182.7 541 137 541C91.3 541 45.7 541 22.8 541L0 541Z" fill="#b1ede8"></path><path d="M0 413L22.8 414.3C45.7 415.7 91.3 418.3 137 417.7C182.7 417 228.3 413 274 400.5C319.7 388 365.3 367 411.2 357.8C457 348.7 503 351.3 548.8 358C594.7 364.7 640.3 375.3 686 381.2C731.7 387 777.3 388 823 391C868.7 394 914.3 399 937.2 401.5L960 404L960 541L937.2 541C914.3 541 868.7 541 823 541C777.3 541 731.7 541 686 541C640.3 541 594.7 541 548.8 541C503 541 457 541 411.2 541C365.3 541 319.7 541 274 541C228.3 541 182.7 541 137 541C91.3 541 45.7 541 22.8 541L0 541Z" fill="#80bbb6"></path><path d="M0 396L22.8 403.7C45.7 411.3 91.3 426.7 137 431.5C182.7 436.3 228.3 430.7 274 429.5C319.7 428.3 365.3 431.7 411.2 424.2C457 416.7 503 398.3 548.8 396C594.7 393.7 640.3 407.3 686 410.8C731.7 414.3 777.3 407.7 823 404C868.7 400.3 914.3 399.7 937.2 399.3L960 399L960 541L937.2 541C914.3 541 868.7 541 823 541C777.3 541 731.7 541 686 541C640.3 541 594.7 541 548.8 541C503 541 457 541 411.2 541C365.3 541 319.7 541 274 541C228.3 541 182.7 541 137 541C91.3 541 45.7 541 22.8 541L0 541Z" fill="#518b87"></path><path d="M0 451L22.8 450.7C45.7 450.3 91.3 449.7 137 452.2C182.7 454.7 228.3 460.3 274 459.5C319.7 458.7 365.3 451.3 411.2 444.5C457 437.7 503 431.3 548.8 433.8C594.7 436.3 640.3 447.7 686 452.5C731.7 457.3 777.3 455.7 823 450.7C868.7 445.7 914.3 437.3 937.2 433.2L960 429L960 541L937.2 541C914.3 541 868.7 541 823 541C777.3 541 731.7 541 686 541C640.3 541 594.7 541 548.8 541C503 541 457 541 411.2 541C365.3 541 319.7 541 274 541C228.3 541 182.7 541 137 541C91.3 541 45.7 541 22.8 541L0 541Z" fill="#225e5a"></path><path d="M0 495L22.8 489.7C45.7 484.3 91.3 473.7 137 470.2C182.7 466.7 228.3 470.3 274 474.5C319.7 478.7 365.3 483.3 411.2 480C457 476.7 503 465.3 548.8 465.5C594.7 465.7 640.3 477.3 686 483.7C731.7 490 777.3 491 823 488.8C868.7 486.7 914.3 481.3 937.2 478.7L960 476L960 541L937.2 541C914.3 541 868.7 541 823 541C777.3 541 731.7 541 686 541C640.3 541 594.7 541 548.8 541C503 541 457 541 411.2 541C365.3 541 319.7 541 274 541C228.3 541 182.7 541 137 541C91.3 541 45.7 541 22.8 541L0 541Z" fill="#003331"></path><path d="M0 491L22.8 490C45.7 489 91.3 487 137 486.7C182.7 486.3 228.3 487.7 274 492.5C319.7 497.3 365.3 505.7 411.2 509.3C457 513 503 512 548.8 509C594.7 506 640.3 501 686 498.2C731.7 495.3 777.3 494.7 823 495.7C868.7 496.7 914.3 499.3 937.2 500.7L960 502L960 541L937.2 541C914.3 541 868.7 541 823 541C777.3 541 731.7 541 686 541C640.3 541 594.7 541 548.8 541C503 541 457 541 411.2 541C365.3 541 319.7 541 274 541C228.3 541 182.7 541 137 541C91.3 541 45.7 541 22.8 541L0 541Z" fill="#000000"></path></svg>