<svg id="visual" viewBox="0 0 960 540" width="960" height="540" xmlns="http://www.w3.org/2000/svg" xmlns:xlink="http://www.w3.org/1999/xlink" version="1.1"><rect x="0" y="0" width="960" height="540" fill="#1D2935"></rect><path d="M0 392L20 389C40 386 80 380 120 376.7C160 373.3 200 372.7 240 379.2C280 385.7 320 399.3 360 406.5C400 413.7 440 414.3 480 407.7C520 401 560 387 600 389C640 391 680 409 720 410C760 411 800 395 840 393.7C880 392.3 920 405.7 940 412.3L960 419L960 541L940 541C920 541 880 541 840 541C800 541 760 541 720 541C680 541 640 541 600 541C560 541 520 541 480 541C440 541 400 541 360 541C320 541 280 541 240 541C200 541 160 541 120 541C80 541 40 541 20 541L0 541Z" fill="#114669"></path><path d="M0 419L20 418.2C40 417.3 80 415.7 120 419.3C160 423 200 432 240 431.8C280 431.7 320 422.3 360 417.7C400 413 440 413 480 413.7C520 414.3 560 415.7 600 422.2C640 428.7 680 440.3 720 445.5C760 450.7 800 449.3 840 444.3C880 439.3 920 430.7 940 426.3L960 422L960 541L940 541C920 541 880 541 840 541C800 541 760 541 720 541C680 541 640 541 600 541C560 541 520 541 480 541C440 541 400 541 360 541C320 541 280 541 240 541C200 541 160 541 120 541C80 541 40 541 20 541L0 541Z" fill="#183e5b"></path><path d="M0 427L20 433.3C40 439.7 80 452.3 120 457.7C160 463 200 461 240 455.7C280 450.3 320 441.7 360 443.8C400 446 440 459 480 462.2C520 465.3 560 458.7 600 456.5C640 454.3 680 456.7 720 460C760 463.3 800 467.7 840 463C880 458.3 920 444.7 940 437.8L960 431L960 541L940 541C920 541 880 541 840 541C800 541 760 541 720 541C680 541 640 541 600 541C560 541 520 541 480 541C440 541 400 541 360 541C320 541 280 541 240 541C200 541 160 541 120 541C80 541 40 541 20 541L0 541Z" fill="#1b374e"></path><path d="M0 483L20 484.8C40 486.7 80 490.3 120 492.8C160 495.3 200 496.7 240 492C280 487.3 320 476.7 360 471C400 465.3 440 464.7 480 463.5C520 462.3 560 460.7 600 464.5C640 468.3 680 477.7 720 483C760 488.3 800 489.7 840 486.2C880 482.7 920 474.3 940 470.2L960 466L960 541L940 541C920 541 880 541 840 541C800 541 760 541 720 541C680 541 640 541 600 541C560 541 520 541 480 541C440 541 400 541 360 541C320 541 280 541 240 541C200 541 160 541 120 541C80 541 40 541 20 541L0 541Z" fill="#1d3041"></path><path d="M0 513L20 512.8C40 512.7 80 512.3 120 511.3C160 510.3 200 508.7 240 509.8C280 511 320 515 360 511.8C400 508.7 440 498.3 480 495.3C520 492.3 560 496.7 600 500.2C640 503.7 680 506.3 720 504.2C760 502 800 495 840 493.7C880 492.3 920 496.7 940 498.8L960 501L960 541L940 541C920 541 880 541 840 541C800 541 760 541 720 541C680 541 640 541 600 541C560 541 520 541 480 541C440 541 400 541 360 541C320 541 280 541 240 541C200 541 160 541 120 541C80 541 40 541 20 541L0 541Z" fill="#1d2935"></path></svg>