<svg id="visual" viewBox="0 0 540 960" width="540" height="960" xmlns="http://www.w3.org/2000/svg" xmlns:xlink="http://www.w3.org/1999/xlink" version="1.1"><rect x="0" y="0" width="540" height="960" fill="#131B23"></rect><path d="M0 737L11.3 737C22.7 737 45.3 737 67.8 726.3C90.3 715.7 112.7 694.3 135.2 690.2C157.7 686 180.3 699 202.8 708.5C225.3 718 247.7 724 270.2 725.7C292.7 727.3 315.3 724.7 337.8 716.3C360.3 708 382.7 694 405.2 699C427.7 704 450.3 728 472.8 723.8C495.3 719.7 517.7 687.3 528.8 671.2L540 655L540 961L528.8 961C517.7 961 495.3 961 472.8 961C450.3 961 427.7 961 405.2 961C382.7 961 360.3 961 337.8 961C315.3 961 292.7 961 270.2 961C247.7 961 225.3 961 202.8 961C180.3 961 157.7 961 135.2 961C112.7 961 90.3 961 67.8 961C45.3 961 22.7 961 11.3 961L0 961Z" fill="#114669"></path><path d="M0 795L11.3 778.5C22.7 762 45.3 729 67.8 716C90.3 703 112.7 710 135.2 720.2C157.7 730.3 180.3 743.7 202.8 755.7C225.3 767.7 247.7 778.3 270.2 768.3C292.7 758.3 315.3 727.7 337.8 723.2C360.3 718.7 382.7 740.3 405.2 755.5C427.7 770.7 450.3 779.3 472.8 771.8C495.3 764.3 517.7 740.7 528.8 728.8L540 717L540 961L528.8 961C517.7 961 495.3 961 472.8 961C450.3 961 427.7 961 405.2 961C382.7 961 360.3 961 337.8 961C315.3 961 292.7 961 270.2 961C247.7 961 225.3 961 202.8 961C180.3 961 157.7 961 135.2 961C112.7 961 90.3 961 67.8 961C45.3 961 22.7 961 11.3 961L0 961Z" fill="#153b56"></path><path d="M0 758L11.3 762.3C22.7 766.7 45.3 775.3 67.8 775C90.3 774.7 112.7 765.3 135.2 761.2C157.7 757 180.3 758 202.8 757.2C225.3 756.3 247.7 753.7 270.2 762C292.7 770.3 315.3 789.7 337.8 795.3C360.3 801 382.7 793 405.2 785C427.7 777 450.3 769 472.8 766.7C495.3 764.3 517.7 767.7 528.8 769.3L540 771L540 961L528.8 961C517.7 961 495.3 961 472.8 961C450.3 961 427.7 961 405.2 961C382.7 961 360.3 961 337.8 961C315.3 961 292.7 961 270.2 961C247.7 961 225.3 961 202.8 961C180.3 961 157.7 961 135.2 961C112.7 961 90.3 961 67.8 961C45.3 961 22.7 961 11.3 961L0 961Z" fill="#163044"></path><path d="M0 813L11.3 816C22.7 819 45.3 825 67.8 837.2C90.3 849.3 112.7 867.7 135.2 868C157.7 868.3 180.3 850.7 202.8 845.5C225.3 840.3 247.7 847.7 270.2 849.2C292.7 850.7 315.3 846.3 337.8 838.8C360.3 831.3 382.7 820.7 405.2 824.7C427.7 828.7 450.3 847.3 472.8 848.5C495.3 849.7 517.7 833.3 528.8 825.2L540 817L540 961L528.8 961C517.7 961 495.3 961 472.8 961C450.3 961 427.7 961 405.2 961C382.7 961 360.3 961 337.8 961C315.3 961 292.7 961 270.2 961C247.7 961 225.3 961 202.8 961C180.3 961 157.7 961 135.2 961C112.7 961 90.3 961 67.8 961C45.3 961 22.7 961 11.3 961L0 961Z" fill="#152533"></path><path d="M0 890L11.3 886.3C22.7 882.7 45.3 875.3 67.8 872C90.3 868.7 112.7 869.3 135.2 877C157.7 884.7 180.3 899.3 202.8 903.8C225.3 908.3 247.7 902.7 270.2 904.2C292.7 905.7 315.3 914.3 337.8 911C360.3 907.7 382.7 892.3 405.2 890C427.7 887.7 450.3 898.3 472.8 903.5C495.3 908.7 517.7 908.3 528.8 908.2L540 908L540 961L528.8 961C517.7 961 495.3 961 472.8 961C450.3 961 427.7 961 405.2 961C382.7 961 360.3 961 337.8 961C315.3 961 292.7 961 270.2 961C247.7 961 225.3 961 202.8 961C180.3 961 157.7 961 135.2 961C112.7 961 90.3 961 67.8 961C45.3 961 22.7 961 11.3 961L0 961Z" fill="#131b23"></path></svg>