<svg id="visual" viewBox="0 0 540 960" width="540" height="960" xmlns="http://www.w3.org/2000/svg" xmlns:xlink="http://www.w3.org/1999/xlink" version="1.1"><rect x="0" y="0" width="540" height="960" fill="#000000"></rect><path d="M0 634L12.8 643.2C25.7 652.3 51.3 670.7 77 675.5C102.7 680.3 128.3 671.7 154 673.5C179.7 675.3 205.3 687.7 231.2 676.2C257 664.7 283 629.3 308.8 622.2C334.7 615 360.3 636 386 640.7C411.7 645.3 437.3 633.7 463 620.3C488.7 607 514.3 592 527.2 584.5L540 577L540 961L527.2 961C514.3 961 488.7 961 463 961C437.3 961 411.7 961 386 961C360.3 961 334.7 961 308.8 961C283 961 257 961 231.2 961C205.3 961 179.7 961 154 961C128.3 961 102.7 961 77 961C51.3 961 25.7 961 12.8 961L0 961Z" fill="#b1ede8"></path><path d="M0 735L12.8 737.3C25.7 739.7 51.3 744.3 77 743.2C102.7 742 128.3 735 154 713C179.7 691 205.3 654 231.2 637.7C257 621.3 283 625.7 308.8 637.3C334.7 649 360.3 668 386 678.3C411.7 688.7 437.3 690.3 463 695.5C488.7 700.7 514.3 709.3 527.2 713.7L540 718L540 961L527.2 961C514.3 961 488.7 961 463 961C437.3 961 411.7 961 386 961C360.3 961 334.7 961 308.8 961C283 961 257 961 231.2 961C205.3 961 179.7 961 154 961C128.3 961 102.7 961 77 961C51.3 961 25.7 961 12.8 961L0 961Z" fill="#80bbb6"></path><path d="M0 704L12.8 717.8C25.7 731.7 51.3 759.3 77 768C102.7 776.7 128.3 766.3 154 764.3C179.7 762.3 205.3 768.7 231.2 755.5C257 742.3 283 709.7 308.8 705.3C334.7 701 360.3 725 386 731.2C411.7 737.3 437.3 725.7 463 719.2C488.7 712.7 514.3 711.3 527.2 710.7L540 710L540 961L527.2 961C514.3 961 488.7 961 463 961C437.3 961 411.7 961 386 961C360.3 961 334.7 961 308.8 961C283 961 257 961 231.2 961C205.3 961 179.7 961 154 961C128.3 961 102.7 961 77 961C51.3 961 25.7 961 12.8 961L0 961Z" fill="#518b87"></path><path d="M0 803L12.8 802.2C25.7 801.3 51.3 799.7 77 804C102.7 808.3 128.3 818.7 154 817.5C179.7 816.3 205.3 803.7 231.2 791.7C257 779.7 283 768.3 308.8 772.7C334.7 777 360.3 797 386 805.5C411.7 814 437.3 811 463 802.2C488.7 793.3 514.3 778.7 527.2 771.3L540 764L540 961L527.2 961C514.3 961 488.7 961 463 961C437.3 961 411.7 961 386 961C360.3 961 334.7 961 308.8 961C283 961 257 961 231.2 961C205.3 961 179.7 961 154 961C128.3 961 102.7 961 77 961C51.3 961 25.7 961 12.8 961L0 961Z" fill="#225e5a"></path><path d="M0 881L12.8 871.5C25.7 862 51.3 843 77 836.7C102.7 830.3 128.3 836.7 154 844.2C179.7 851.7 205.3 860.3 231.2 854.5C257 848.7 283 828.3 308.8 828.5C334.7 828.7 360.3 849.3 386 860.7C411.7 872 437.3 874 463 870.2C488.7 866.3 514.3 856.7 527.2 851.8L540 847L540 961L527.2 961C514.3 961 488.7 961 463 961C437.3 961 411.7 961 386 961C360.3 961 334.7 961 308.8 961C283 961 257 961 231.2 961C205.3 961 179.7 961 154 961C128.3 961 102.7 961 77 961C51.3 961 25.7 961 12.8 961L0 961Z" fill="#003331"></path><path d="M0 874L12.8 872.2C25.7 870.3 51.3 866.7 77 865.8C102.7 865 128.3 867 154 875.5C179.7 884 205.3 899 231.2 905.7C257 912.3 283 910.7 308.8 905.5C334.7 900.3 360.3 891.7 386 886.7C411.7 881.7 437.3 880.3 463 882.2C488.7 884 514.3 889 527.2 891.5L540 894L540 961L527.2 961C514.3 961 488.7 961 463 961C437.3 961 411.7 961 386 961C360.3 961 334.7 961 308.8 961C283 961 257 961 231.2 961C205.3 961 179.7 961 154 961C128.3 961 102.7 961 77 961C51.3 961 25.7 961 12.8 961L0 961Z" fill="#000000"></path></svg>