<svg id="visual" viewBox="0 0 960 540" width="960" height="540" xmlns="http://www.w3.org/2000/svg" xmlns:xlink="http://www.w3.org/1999/xlink" version="1.1"><rect x="0" y="0" width="960" height="540" fill="#131B23"></rect><path d="M0 368L20 373.7C40 379.3 80 390.7 120 400.8C160 411 200 420 240 424C280 428 320 427 360 419.8C400 412.7 440 399.3 480 394.3C520 389.3 560 392.7 600 395.7C640 398.7 680 401.3 720 401.3C760 401.3 800 398.7 840 392.3C880 386 920 376 940 371L960 366L960 541L940 541C920 541 880 541 840 541C800 541 760 541 720 541C680 541 640 541 600 541C560 541 520 541 480 541C440 541 400 541 360 541C320 541 280 541 240 541C200 541 160 541 120 541C80 541 40 541 20 541L0 541Z" fill="#114669"></path><path d="M0 419L20 423.7C40 428.3 80 437.7 120 435C160 432.3 200 417.7 240 414.7C280 411.7 320 420.3 360 427.7C400 435 440 441 480 434.7C520 428.3 560 409.7 600 410.2C640 410.7 680 430.3 720 440.3C760 450.3 800 450.7 840 441.2C880 431.7 920 412.3 940 402.7L960 393L960 541L940 541C920 541 880 541 840 541C800 541 760 541 720 541C680 541 640 541 600 541C560 541 520 541 480 541C440 541 400 541 360 541C320 541 280 541 240 541C200 541 160 541 120 541C80 541 40 541 20 541L0 541Z" fill="#153b56"></path><path d="M0 437L20 441.8C40 446.7 80 456.3 120 458C160 459.7 200 453.3 240 455C280 456.7 320 466.3 360 466.7C400 467 440 458 480 454.2C520 450.3 560 451.7 600 455.3C640 459 680 465 720 465.5C760 466 800 461 840 461.3C880 461.7 920 467.3 940 470.2L960 473L960 541L940 541C920 541 880 541 840 541C800 541 760 541 720 541C680 541 640 541 600 541C560 541 520 541 480 541C440 541 400 541 360 541C320 541 280 541 240 541C200 541 160 541 120 541C80 541 40 541 20 541L0 541Z" fill="#163044"></path><path d="M0 468L20 472.8C40 477.7 80 487.3 120 485.8C160 484.3 200 471.7 240 469.7C280 467.7 320 476.3 360 475.7C400 475 440 465 480 462.7C520 460.3 560 465.7 600 467.5C640 469.3 680 467.7 720 471.2C760 474.7 800 483.3 840 483.2C880 483 920 474 940 469.5L960 465L960 541L940 541C920 541 880 541 840 541C800 541 760 541 720 541C680 541 640 541 600 541C560 541 520 541 480 541C440 541 400 541 360 541C320 541 280 541 240 541C200 541 160 541 120 541C80 541 40 541 20 541L0 541Z" fill="#152533"></path><path d="M0 489L20 493.5C40 498 80 507 120 506.7C160 506.3 200 496.7 240 492C280 487.3 320 487.7 360 493.2C400 498.7 440 509.3 480 512.2C520 515 560 510 600 506.5C640 503 680 501 720 502.8C760 504.7 800 510.3 840 508.2C880 506 920 496 940 491L960 486L960 541L940 541C920 541 880 541 840 541C800 541 760 541 720 541C680 541 640 541 600 541C560 541 520 541 480 541C440 541 400 541 360 541C320 541 280 541 240 541C200 541 160 541 120 541C80 541 40 541 20 541L0 541Z" fill="#131b23"></path></svg>