<svg id="visual" viewBox="0 0 960 540" width="960" height="540" xmlns="http://www.w3.org/2000/svg" xmlns:xlink="http://www.w3.org/1999/xlink" version="1.1"><rect x="0" y="0" width="960" height="540" fill="#1D2935"></rect><path d="M0 320L20 323.5C40 327 80 334 120 342.5C160 351 200 361 240 360.2C280 359.3 320 347.7 360 348.2C400 348.7 440 361.3 480 359.2C520 357 560 340 600 343.2C640 346.3 680 369.7 720 369.8C760 370 800 347 840 344.8C880 342.7 920 361.3 940 370.7L960 380L960 541L940 541C920 541 880 541 840 541C800 541 760 541 720 541C680 541 640 541 600 541C560 541 520 541 480 541C440 541 400 541 360 541C320 541 280 541 240 541C200 541 160 541 120 541C80 541 40 541 20 541L0 541Z" fill="#1d2935"></path><path d="M0 359L20 358.8C40 358.7 80 358.3 120 370.2C160 382 200 406 240 409.2C280 412.3 320 394.7 360 385.8C400 377 440 377 480 384.3C520 391.7 560 406.3 600 409.2C640 412 680 403 720 395.7C760 388.3 800 382.7 840 382.8C880 383 920 389 940 392L960 395L960 541L940 541C920 541 880 541 840 541C800 541 760 541 720 541C680 541 640 541 600 541C560 541 520 541 480 541C440 541 400 541 360 541C320 541 280 541 240 541C200 541 160 541 120 541C80 541 40 541 20 541L0 541Z" fill="#1d3041"></path><path d="M0 440L20 439.7C40 439.3 80 438.7 120 432C160 425.3 200 412.7 240 413.8C280 415 320 430 360 432.8C400 435.7 440 426.3 480 418.3C520 410.3 560 403.7 600 405C640 406.3 680 415.7 720 425.2C760 434.7 800 444.3 840 447.8C880 451.3 920 448.7 940 447.3L960 446L960 541L940 541C920 541 880 541 840 541C800 541 760 541 720 541C680 541 640 541 600 541C560 541 520 541 480 541C440 541 400 541 360 541C320 541 280 541 240 541C200 541 160 541 120 541C80 541 40 541 20 541L0 541Z" fill="#1b374e"></path><path d="M0 443L20 446.7C40 450.3 80 457.7 120 463.7C160 469.7 200 474.3 240 471C280 467.7 320 456.3 360 450.3C400 444.3 440 443.7 480 446.7C520 449.7 560 456.3 600 458.3C640 460.3 680 457.7 720 460.3C760 463 800 471 840 471C880 471 920 463 940 459L960 455L960 541L940 541C920 541 880 541 840 541C800 541 760 541 720 541C680 541 640 541 600 541C560 541 520 541 480 541C440 541 400 541 360 541C320 541 280 541 240 541C200 541 160 541 120 541C80 541 40 541 20 541L0 541Z" fill="#183e5b"></path><path d="M0 494L20 491.8C40 489.7 80 485.3 120 481.8C160 478.3 200 475.7 240 477.2C280 478.7 320 484.3 360 486.2C400 488 440 486 480 486.8C520 487.7 560 491.3 600 490.5C640 489.7 680 484.3 720 482.2C760 480 800 481 840 487.2C880 493.3 920 504.7 940 510.3L960 516L960 541L940 541C920 541 880 541 840 541C800 541 760 541 720 541C680 541 640 541 600 541C560 541 520 541 480 541C440 541 400 541 360 541C320 541 280 541 240 541C200 541 160 541 120 541C80 541 40 541 20 541L0 541Z" fill="#114669"></path></svg>